<svg width="51" height="25" viewBox="0 0 51 25" fill="none" xmlns="http://www.w3.org/2000/svg">
<g clip-path="url(#clip0_113_4363)">
<path d="M16.8273 9.20988C16.8273 5.23736 13.4932 2.01614 9.37753 2.01614C5.26186 2.01614 1.92456 5.23736 1.92456 9.20988C1.92456 13.1824 5.26186 16.4036 9.37753 16.4036C9.59483 16.4036 9.80889 16.3942 10.0229 16.3786C10.0067 16.1876 10.0002 15.9998 10.0002 15.8057C10.0002 15.5928 10.01 15.3831 10.0294 15.1734C9.81537 15.1953 9.59807 15.2047 9.37753 15.2047C5.94943 15.2047 3.16672 12.5219 3.16672 9.20988C3.16672 5.89788 5.94618 3.2151 9.37753 3.2151C12.8089 3.2151 15.5883 5.89788 15.5883 9.20988C15.5883 11.8708 13.7948 14.1247 11.3105 14.9073C11.2651 15.1984 11.2424 15.4989 11.2424 15.8026C11.2424 15.9278 11.2456 16.0499 11.2554 16.172C14.4629 15.3706 16.8305 12.5563 16.8305 9.20988" fill="#0078D0"/>
<path d="M49.1203 9.20987C49.1203 13.1824 45.783 16.4036 41.6673 16.4036C37.7722 16.4036 34.5744 13.5205 34.2435 9.84222C34.6879 9.88604 35.116 9.97683 35.5246 10.1052C35.9722 12.9914 38.5506 15.2047 41.6641 15.2047C45.0954 15.2047 47.8749 12.5219 47.8749 9.20987C47.8749 5.89787 45.0954 3.21509 41.6641 3.21509C38.2327 3.21509 35.6641 5.70065 35.4663 8.83735C35.0673 8.73718 34.6554 8.66831 34.2371 8.63387C34.5387 4.93057 37.7495 2.013 41.6641 2.013C45.7798 2.013 49.1171 5.23422 49.1171 9.20674" fill="#F0282D"/>
<path d="M39.7927 16.172C39.5949 19.3118 36.8965 21.7973 33.5949 21.7973C30.2933 21.7973 27.3841 19.1146 27.3841 15.8026C27.3841 13.1448 29.1776 10.8878 31.6619 10.1052C31.7073 9.81404 31.73 9.51352 31.73 9.20987C31.73 9.08778 31.7268 8.96256 31.717 8.84048C28.5095 9.645 26.1387 12.4561 26.1387 15.8026C26.1387 19.7751 29.476 22.9963 33.5916 22.9963C37.7073 22.9963 40.717 20.0819 41.0219 16.3754C40.6003 16.341 40.1884 16.2721 39.7927 16.172ZM33.5949 9.80778C36.7084 9.80778 39.29 12.021 39.7376 14.9073C40.1495 15.0356 40.5776 15.1264 41.0219 15.1702C40.6879 11.492 37.4933 8.60883 33.5981 8.60883C33.3808 8.60883 33.1668 8.61822 32.956 8.63387C32.9722 8.82483 32.9787 9.01265 32.9787 9.20674C32.9787 9.41961 32.9689 9.62935 32.9527 9.83909C33.1668 9.81717 33.3808 9.80465 33.6014 9.80465" fill="#00A851"/>
<path d="M24.8769 16.3754C24.5753 20.0788 21.3645 22.9963 17.4466 22.9963C13.331 22.9963 9.99365 19.7751 9.99365 15.8026C9.99365 12.4561 12.3612 9.64188 15.572 8.84049C15.5818 8.96258 15.585 9.0878 15.585 9.20988C15.585 9.51353 15.5623 9.81406 15.5169 10.1052C13.0326 10.8909 11.2391 13.1448 11.2391 15.8026C11.2391 19.1146 14.0185 21.7974 17.4499 21.7974C20.8812 21.7974 23.4499 19.3118 23.6477 16.172C24.0466 16.2721 24.4585 16.341 24.8801 16.3754M16.798 9.84223C16.8174 9.63249 16.8272 9.42275 16.8272 9.20988C16.8272 9.0158 16.8207 8.82484 16.8045 8.63701C17.0153 8.62136 17.2326 8.61197 17.4499 8.61197C21.345 8.61197 24.5428 11.4951 24.8737 15.1734C24.4293 15.1295 24.0012 15.0388 23.5893 14.9104C23.1418 12.0241 20.5634 9.81093 17.4499 9.81093C17.2293 9.81093 17.0153 9.82345 16.798 9.84536" fill="#FFB114"/>
<path d="M25.5225 15.2047C22.409 15.2047 19.8274 12.9914 19.383 10.1052C18.9744 9.97684 18.543 9.88606 18.0987 9.84223C18.4328 13.5174 21.6274 16.4036 25.5225 16.4036C25.7398 16.4036 25.9538 16.3942 26.1679 16.3754C26.1517 16.1876 26.1452 15.9967 26.1452 15.8026C26.1452 15.5897 26.1549 15.38 26.1744 15.1702C25.9603 15.1921 25.743 15.2015 25.5257 15.2015M25.5225 2.01614C21.6079 2.01614 18.3971 4.93058 18.0955 8.63701C18.5171 8.67145 18.9257 8.74032 19.3246 8.84049C19.5225 5.7038 22.2209 3.21823 25.5225 3.21823C28.8241 3.21823 31.7333 5.90101 31.7333 9.21301C31.7333 11.8708 29.9398 14.1278 27.4555 14.9104C27.4101 15.2015 27.3874 15.5021 27.3874 15.8057C27.3874 15.9309 27.3906 16.053 27.4003 16.1751C30.6079 15.3737 32.9755 12.5594 32.9755 9.20988C32.9755 5.23736 29.6382 2.01614 25.5225 2.01614Z" fill="black"/>
</g>
<defs>
<clipPath id="clip0_113_4363">
<rect width="48" height="21.6" fill="white" transform="translate(1.6001 1.70001)"/>
</clipPath>
</defs>
</svg>
